<svg width="32" height="32" viewBox="0 0 32 32" fill="none" xmlns="http://www.w3.org/2000/svg">
<mask id="path-1-inside-1_36_56182" fill="white">
<path d="M0 6.4C0 4.15979 0 3.03969 0.435974 2.18404C0.819467 1.43139 1.43139 0.819467 2.18404 0.435974C3.03969 0 4.15979 0 6.4 0H25.6C27.8402 0 28.9603 0 29.816 0.435974C30.5686 0.819467 31.1805 1.43139 31.564 2.18404C32 3.03969 32 4.15979 32 6.4V25.6C32 27.8402 32 28.9603 31.564 29.816C31.1805 30.5686 30.5686 31.1805 29.816 31.564C28.9603 32 27.8402 32 25.6 32H6.4C4.15979 32 3.03969 32 2.18404 31.564C1.43139 31.1805 0.819467 30.5686 0.435974 29.816C0 28.9603 0 27.8402 0 25.6V6.4Z"/>
</mask>
<path d="M0 6.4C0 4.15979 0 3.03969 0.435974 2.18404C0.819467 1.43139 1.43139 0.819467 2.18404 0.435974C3.03969 0 4.15979 0 6.4 0H25.6C27.8402 0 28.9603 0 29.816 0.435974C30.5686 0.819467 31.1805 1.43139 31.564 2.18404C32 3.03969 32 4.15979 32 6.4V25.6C32 27.8402 32 28.9603 31.564 29.816C31.1805 30.5686 30.5686 31.1805 29.816 31.564C28.9603 32 27.8402 32 25.6 32H6.4C4.15979 32 3.03969 32 2.18404 31.564C1.43139 31.1805 0.819467 30.5686 0.435974 29.816C0 28.9603 0 27.8402 0 25.6V6.4Z" fill="white"/>
<path d="M31.564 29.816L30.673 29.362L31.564 29.816ZM29.816 31.564L29.362 30.673L29.816 31.564ZM29.816 0.435974L30.27 -0.455033L29.816 0.435974ZM31.564 2.18404L30.673 2.63803L31.564 2.18404ZM2.18404 0.435974L1.73005 -0.455033L2.18404 0.435974ZM0.435974 2.18404L-0.455033 1.73005L0.435974 2.18404ZM6.4 1H25.6V-1H6.4V1ZM31 6.4V25.6H33V6.4H31ZM25.6 31H6.4V33H25.6V31ZM1 25.6V6.4H-1V25.6H1ZM6.4 31C5.26339 31 4.47108 30.9992 3.85424 30.9488C3.24907 30.8994 2.90138 30.8072 2.63803 30.673L1.73005 32.455C2.32234 32.7568 2.96253 32.8826 3.69138 32.9422C4.40855 33.0008 5.2964 33 6.4 33V31ZM-1 25.6C-1 26.7036 -1.00078 27.5914 -0.942182 28.3086C-0.882633 29.0375 -0.75682 29.6777 -0.455033 30.27L1.32698 29.362C1.19279 29.0986 1.10062 28.7509 1.05118 28.1458C1.00078 27.5289 1 26.7366 1 25.6H-1ZM2.63803 30.673C2.07354 30.3854 1.6146 29.9265 1.32698 29.362L-0.455033 30.27C0.0243343 31.2108 0.789237 31.9757 1.73005 32.455L2.63803 30.673ZM31 25.6C31 26.7366 30.9992 27.5289 30.9488 28.1458C30.8994 28.7509 30.8072 29.0986 30.673 29.362L32.455 30.27C32.7568 29.6777 32.8826 29.0375 32.9422 28.3086C33.0008 27.5914 33 26.7036 33 25.6H31ZM25.6 33C26.7036 33 27.5914 33.0008 28.3086 32.9422C29.0375 32.8826 29.6777 32.7568 30.27 32.455L29.362 30.673C29.0986 30.8072 28.7509 30.8994 28.1458 30.9488C27.5289 30.9992 26.7366 31 25.6 31V33ZM30.673 29.362C30.3854 29.9265 29.9265 30.3854 29.362 30.673L30.27 32.455C31.2108 31.9757 31.9757 31.2108 32.455 30.27L30.673 29.362ZM25.6 1C26.7366 1 27.5289 1.00078 28.1458 1.05118C28.7509 1.10062 29.0986 1.19279 29.362 1.32698L30.27 -0.455033C29.6777 -0.75682 29.0375 -0.882633 28.3086 -0.942182C27.5914 -1.00078 26.7036 -1 25.6 -1V1ZM33 6.4C33 5.2964 33.0008 4.40855 32.9422 3.69138C32.8826 2.96253 32.7568 2.32234 32.455 1.73005L30.673 2.63803C30.8072 2.90138 30.8994 3.24907 30.9488 3.85424C30.9992 4.47108 31 5.26339 31 6.4H33ZM29.362 1.32698C29.9265 1.6146 30.3854 2.07354 30.673 2.63803L32.455 1.73005C31.9757 0.789237 31.2108 0.0243343 30.27 -0.455033L29.362 1.32698ZM6.4 -1C5.2964 -1 4.40855 -1.00078 3.69138 -0.942182C2.96253 -0.882633 2.32234 -0.75682 1.73005 -0.455033L2.63803 1.32698C2.90138 1.19279 3.24907 1.10062 3.85424 1.05118C4.47108 1.00078 5.26339 1 6.4 1V-1ZM1 6.4C1 5.26339 1.00078 4.47108 1.05118 3.85424C1.10062 3.24907 1.19279 2.90138 1.32698 2.63803L-0.455033 1.73005C-0.75682 2.32234 -0.882633 2.96253 -0.942182 3.69138C-1.00078 4.40855 -1 5.2964 -1 6.4H1ZM1.73005 -0.455033C0.789237 0.0243343 0.0243343 0.789237 -0.455033 1.73005L1.32698 2.63803C1.6146 2.07354 2.07354 1.6146 2.63803 1.32698L1.73005 -0.455033Z" fill="#D5D8DD" mask="url(#path-1-inside-1_36_56182)"/>
<g clip-path="url(#clip0_36_56182)">
<path fill-rule="evenodd" clip-rule="evenodd" d="M7.42259 6.24408C7.09715 5.91864 6.56951 5.91864 6.24408 6.24408C5.91864 6.56951 5.91864 7.09715 6.24408 7.42259L11.4205 12.599C11.0549 12.6632 10.7056 12.7716 10.3857 12.9009C9.34023 13.3236 8.43149 14.0332 7.90168 14.563C7.79122 14.6735 7.72016 14.8082 7.68793 14.9506C7.67361 15.0106 7.66691 15.0722 7.66782 15.134C7.66853 15.3473 7.75181 15.5621 7.91586 15.7261L11.5138 19.324L9.19222 21.6458C8.97658 21.8614 8.90573 22.1671 8.97966 22.4418C9.00819 22.5798 9.07599 22.7112 9.18305 22.8183C9.29034 22.9256 9.42213 22.9934 9.56041 23.0218C9.83494 23.0953 10.1401 23.0243 10.3555 22.8089L12.6766 20.4876L16.2743 24.0852C16.4299 24.2408 16.6396 24.3302 16.8577 24.3332L16.8597 24.3332L16.8674 24.3333C16.9342 24.3342 17 24.3262 17.0631 24.3098C17.2039 24.2752 17.3335 24.2032 17.4374 24.0994C17.9672 23.5696 18.6768 22.6608 19.0995 21.6154C19.2289 21.2953 19.3373 20.9458 19.4015 20.58L24.5774 25.7559C24.9028 26.0814 25.4305 26.0814 25.7559 25.7559C26.0814 25.4305 26.0814 24.9028 25.7559 24.5774L7.42259 6.24408ZM17.4151 18.5936L13.4067 14.5852C13.2931 14.5654 13.1819 14.5216 13.0808 14.4535C12.5377 14.0874 11.8404 14.1021 11.034 14.4281C10.5455 14.6257 10.08 14.9153 9.69516 15.2076L13.7626 19.275C13.7694 19.2818 13.7761 19.2887 13.7826 19.2957L16.7928 22.3059C17.0851 21.9211 17.3747 21.4556 17.5722 20.9671C17.8983 20.1607 17.913 19.4634 17.5469 18.9203C17.4786 18.819 17.4348 18.7074 17.4151 18.5936Z" fill="#2E3238"/>
<path d="M22.3481 13.172L19.527 15.9931L20.7043 17.1704L24.0998 13.7749C24.2594 13.6152 24.3368 13.405 24.3336 13.1942C24.3375 13.0075 24.2717 12.8178 24.1368 12.6676C24.1207 12.6484 24.1037 12.6298 24.0856 12.6118L22.2761 10.8023C22.2696 10.7953 22.2629 10.7883 22.2561 10.7815L19.3893 7.91471C19.3715 7.89692 19.353 7.88 19.3339 7.86397C19.1955 7.73978 19.0172 7.66924 18.8329 7.66674C18.8249 7.66663 18.817 7.66665 18.8091 7.66679L18.8059 7.66674C18.5877 7.66378 18.3791 7.74765 18.2262 7.90053L14.8303 11.2964L16.0076 12.4737L18.829 9.65226L20.7195 11.5427C20.726 11.5497 20.7327 11.5566 20.7395 11.5634L22.3481 13.172Z" fill="#2E3238"/>
</g>
<defs>
<clipPath id="clip0_36_56182">
<rect width="20" height="20" fill="white" transform="translate(6 6)"/>
</clipPath>
</defs>
</svg>
